<?xml version="1.0" encoding="iso-8859-1"?>
<!-- Generator: Adobe Illustrator 19.0.0, SVG Export Plug-In . SVG Version: 6.00 Build 0)  -->
<svg version="1.1" id="Capa_1" xmlns="http://www.w3.org/2000/svg" xmlns:xlink="http://www.w3.org/1999/xlink" x="0px" y="0px"
	 viewBox="0 0 512 512" style="enable-background:new 0 0 512 512;" xml:space="preserve">
<path style="fill:#EEBF00;" d="M227.607,121.384v66.645c0,42.367-34.346,76.713-76.713,76.713h-36.485
	c-16.734,0-32.227-5.364-44.837-14.47c-19.307-13.922-31.865-36.62-31.865-62.242v-66.645
	C37.707,121.384,227.607,121.384,227.607,121.384z"/>
<g>
	<path style="fill:#D8D7DA;" d="M95.888,13.406v70.366H67.96V13.406C67.96,5.995,73.955,0,81.366,0h1.116
		c2.718,0,5.251,0.817,7.369,2.202C93.49,4.599,95.888,8.723,95.888,13.406z"/>
	<path style="fill:#D8D7DA;" d="M197.354,13.406v70.366h-27.927V13.406C169.427,5.995,175.422,0,182.833,0h1.116
		c2.718,0,5.251,0.817,7.369,2.202C194.957,4.599,197.354,8.723,197.354,13.406z"/>
</g>
<g>
	<path style="fill:#E0E0E2;" d="M95.888,13.406v70.366H83.805V13.406c0-4.692,2.408-8.806,6.046-11.204
		C93.49,4.599,95.888,8.723,95.888,13.406z"/>
	<path style="fill:#E0E0E2;" d="M197.354,13.406v70.366h-12.083V13.406c0-4.692,2.408-8.806,6.046-11.204
		C194.957,4.599,197.354,8.723,197.354,13.406z"/>
</g>
<path style="fill:#C6C5CA;" d="M474.22,47.638v76.247h-63.049V47.638c0-4.982,4.041-9.023,9.013-9.023h45.023
	C470.179,38.615,474.22,42.656,474.22,47.638z"/>
<path style="fill:#E0E0E2;" d="M474.22,47.628v30.263h-31.757c-7.007,0-12.687-5.681-12.687-12.687V38.615h35.431
	C470.185,38.615,474.22,42.65,474.22,47.628z"/>
<path style="fill:#FFDE55;" d="M241.871,84.961v38.584c0,8.527-6.977,15.504-15.504,15.504H38.937
	c-8.527,0-15.504-6.977-15.504-15.504V84.961c0-8.527,6.977-15.504,15.504-15.504h187.43
	C234.894,69.457,241.871,76.433,241.871,84.961z"/>
<path style="fill:#FFEB99;" d="M241.871,84.961v21.705H69.945c-8.527,0-15.504-6.977-15.504-15.504V69.457h171.926
	C234.894,69.457,241.871,76.433,241.871,84.961z"/>
<path style="fill:#EEBF00;" d="M488.567,102.604v51.907c0,25.333-20.537,45.86-45.87,45.86c-7.039,0-13.705-1.581-19.669-4.413
	c-15.493-7.369-26.201-23.152-26.201-41.447v-51.907c0-4.227,3.431-7.659,7.659-7.659h76.413
	C485.135,94.945,488.567,98.376,488.567,102.604z"/>
<path style="fill:#FFCD00;" d="M426.707,117.684c-4.227,0-7.659,3.431-7.659,7.659v51.907c0,6.667,1.426,12.992,3.979,18.708
	c2.101,0.997,4.294,1.83,6.554,2.503v88.488c0,15.244-12.402,27.646-27.646,27.646H276.361c-30.062,0-54.519,24.458-54.519,54.519
	v6.201c0,30.062,24.458,54.519,54.519,54.519h32.557c15.243,0,27.645,12.402,27.645,27.646c0,15.244-12.402,27.646-27.645,27.646
	H172.491c-15.244,0-27.646-12.402-27.646-27.646V264.742h6.051c42.367,0,76.713-34.346,76.713-76.713v-19.783H82.203
	c-7.835,0-14.181,6.346-14.181,14.181v52.465c0,5.271,0.527,10.419,1.55,15.38c12.61,9.106,28.103,14.47,44.837,14.47h3.562v192.739
	c0,30.062,24.458,54.519,54.519,54.519h136.427c30.062,0,54.518-24.458,54.518-54.519s-24.457-54.519-54.518-54.519h-32.557
	c-15.244,0-27.646-12.402-27.646-27.646v-6.201c0-15.244,12.402-27.646,27.646-27.646h125.574c30.062,0,54.519-24.458,54.519-54.519
	v-88.678c18.611-5.842,32.112-23.219,32.112-43.759v-36.827L426.707,117.684L426.707,117.684z"/>
<g>
	<path style="fill:#CCA400;" d="M169.414,236.66H93.449c-4.282,0-7.752-3.471-7.752-7.752s3.47-7.752,7.752-7.752h75.964
		c4.282,0,7.752,3.471,7.752,7.752S173.695,236.66,169.414,236.66z"/>
	<path style="fill:#CCA400;" d="M169.414,210.304H93.449c-4.282,0-7.752-3.471-7.752-7.752s3.47-7.752,7.752-7.752h75.964
		c4.282,0,7.752,3.471,7.752,7.752S173.695,210.304,169.414,210.304z"/>
</g>
<g>
</g>
<g>
</g>
<g>
</g>
<g>
</g>
<g>
</g>
<g>
</g>
<g>
</g>
<g>
</g>
<g>
</g>
<g>
</g>
<g>
</g>
<g>
</g>
<g>
</g>
<g>
</g>
<g>
</g>
</svg>
