<?xml version="1.0" encoding="iso-8859-1"?>
<!-- Generator: Adobe Illustrator 19.0.0, SVG Export Plug-In . SVG Version: 6.00 Build 0)  -->
<svg version="1.1" id="Layer_1" xmlns="http://www.w3.org/2000/svg" xmlns:xlink="http://www.w3.org/1999/xlink" x="0px" y="0px"
	 viewBox="0 0 512 512" style="enable-background:new 0 0 512 512;" xml:space="preserve">
<path style="fill:#75EFFF;" d="M96.193,415.808c-5.857-5.857-15.355-5.857-21.213,0L4.394,486.393
	c-5.859,5.859-5.859,15.355,0,21.215C7.324,510.536,11.162,512,15,512s7.678-1.464,10.607-4.393l70.586-70.587
	C102.053,431.162,102.053,421.666,96.193,415.808z"/>
<path style="fill:#00CEEE;" d="M415.807,96.192c2.93,2.929,6.768,4.394,10.605,4.395c3.838,0,7.678-1.465,10.607-4.394
	l70.588-70.586c5.857-5.858,5.857-15.355,0-21.213c-5.855-5.858-15.355-5.858-21.213-0.001l-70.588,70.586
	C409.947,80.838,409.947,90.334,415.807,96.192z"/>
<path style="fill:#FFE477;" d="M233.279,361.888c-3.98,0-7.795-1.58-10.609-4.393l-68.164-68.167
	c-5.857-5.858-5.857-15.354,0-21.213l45.443-45.442c5.857-5.857,15.355-5.858,21.211,0c5.861,5.858,5.859,15.355,0.002,21.213
	l-34.836,34.836l46.951,46.953l34.838-34.837c5.858-5.857,15.355-5.857,21.211,0c5.861,5.858,5.859,15.355,0.002,21.213
	l-45.443,45.443C241.072,360.307,237.256,361.888,233.279,361.888z"/>
<path style="fill:#FFB655;" d="M289.326,290.838c-5.855-5.857-15.353-5.857-21.211,0l-34.838,34.837l-23.475-23.476l-21.213,21.213
	l34.08,34.082c2.814,2.813,6.629,4.393,10.609,4.393c3.977,0,7.793-1.581,10.605-4.393l45.443-45.443
	C295.185,306.193,295.187,296.696,289.326,290.838z"/>
<g>
	<path style="fill:#00479B;" d="M277.969,370.361l-80.791-80.787l-44.18-44.182c-0.01-0.008-0.018-0.016-0.027-0.024l-11.336-11.335
		c-5.858-5.857-15.354-5.857-21.211,0.001c-5.859,5.857-5.859,15.354,0,21.213l0.752,0.753L74.98,302.197
		c-37.172,37.171-37.172,97.652,0,134.821c18.006,18.007,41.947,27.924,67.412,27.923c0.002,0.001-0.002,0.001,0,0.001
		c25.463,0,49.404-9.917,67.408-27.921l46.201-46.199l0.754,0.755c2.928,2.928,6.767,4.392,10.605,4.392
		c3.84,0,7.678-1.464,10.607-4.394C283.826,385.718,283.826,376.22,277.969,370.361z"/>
	<path style="fill:#00479B;" d="M391.576,256.753l-0.754-0.754l46.195-46.195c37.172-37.17,37.172-97.652,0.002-134.824
		c-18.008-18.005-41.947-27.921-67.412-27.921c-25.463,0-49.406,9.917-67.408,27.922L256,121.179l-0.756-0.755
		c-5.857-5.857-15.354-5.857-21.211,0.001c-5.859,5.857-5.859,15.355,0,21.213l136.33,136.329c2.928,2.929,6.768,4.393,10.605,4.393
		c3.84,0,7.68-1.464,10.605-4.394C397.435,272.108,397.434,262.61,391.576,256.753z"/>
</g>
<g>
	<path style="fill:#003068;" d="M277.969,370.361l-68.166-68.163L74.982,437.019c18.006,18.006,41.945,27.923,67.41,27.922
		c0.002,0.001-0.002,0.001,0,0.001c25.463,0,49.404-9.917,67.408-27.921l46.201-46.199l0.754,0.755
		c2.928,2.928,6.767,4.392,10.605,4.392c3.84,0,7.678-1.464,10.607-4.394C283.826,385.718,283.826,376.22,277.969,370.361z"/>
	<path style="fill:#003068;" d="M380.969,282.359c3.84,0,7.68-1.464,10.605-4.394c5.861-5.858,5.859-15.355,0.002-21.213
		l-0.754-0.754l46.195-46.195c37.17-37.17,37.172-97.65,0.004-134.823L302.199,209.803l68.164,68.164
		C373.291,280.895,377.131,282.36,380.969,282.359z"/>
</g>
<g>
</g>
<g>
</g>
<g>
</g>
<g>
</g>
<g>
</g>
<g>
</g>
<g>
</g>
<g>
</g>
<g>
</g>
<g>
</g>
<g>
</g>
<g>
</g>
<g>
</g>
<g>
</g>
<g>
</g>
</svg>
